<?xml version="1.0" encoding="UTF-8"?>
<!DOCTYPE svg PUBLIC "-//W3C//DTD SVG 1.1//EN" "http://www.w3.org/Graphics/SVG/1.1/DTD/svg11.dtd">
<!-- Creator: CorelDRAW X6 -->
<svg xmlns="http://www.w3.org/2000/svg" xml:space="preserve" width="9.36111in" height="3.11111in" version="1.1" style="shape-rendering:geometricPrecision; text-rendering:geometricPrecision; image-rendering:optimizeQuality; fill-rule:evenodd; clip-rule:evenodd"
viewBox="0 0 9361 3111"
 xmlns:xlink="http://www.w3.org/1999/xlink">
 <defs>
  <style type="text/css">
   <![CDATA[
    .fil0 {fill:#FEFEFE;fill-rule:nonzero}
   ]]>
  </style>
 </defs>
 <g id="Layer_x0020_1">
  <metadata id="CorelCorpID_0Corel-Layer"/>
  <path class="fil0" d="M1083 861l-111 0 0 153 111 0 0 -153zm-294 1424l19 -95c8,3 22,8 53,8 82,0 109,-67 109,-180l0 -824 113 0 0 844c0,154 -61,258 -213,258 -51,0 -74,-8 -81,-11z"/>
  <path class="fil0" d="M1734 1473c-3,-106 -51,-200 -180,-200 -119,0 -185,84 -205,200l385 0zm-512 88c0,-219 137,-386 335,-386 185,0 293,132 293,335 0,17 -2,34 -3,53l-504 0c3,158 67,296 234,296 104,0 174,-47 206,-67l47 88c-37,25 -121,76 -256,76 -234,0 -352,-175 -352,-396z"/>
  <path class="fil0" d="M2155 1400l416 -495 141 0 -416 487 444 546 -151 0 -435 -539zm-124 -495l120 0 0 1034 -120 0 0 -1034z"/>
  <path class="fil0" d="M2859 1194l113 0 0 107c67,-84 151,-126 242,-126 157,0 219,104 219,233l0 531 -113 0 0 -509c0,-93 -33,-152 -132,-152 -84,0 -163,64 -216,137l0 525 -113 0 0 -745z"/>
  <path class="fil0" d="M4119 1568c0,-160 -81,-295 -236,-295 -155,0 -217,132 -217,292 0,160 70,295 225,295 155,0 228,-132 228,-292zm-574 0c0,-174 88,-393 340,-393 251,0 355,216 355,390 0,174 -99,393 -351,393 -251,0 -345,-216 -345,-390z"/>
  <polygon class="fil0" points="4311,1194 4435,1194 4594,1757 4597,1757 4772,1194 4882,1194 5058,1759 5061,1759 5221,1194 5336,1194 5112,1939 5010,1939 4825,1360 4822,1360 4636,1939 4533,1939 "/>
  <polygon class="fil0" points="5451,1939 5565,1939 5565,821 5451,821 "/>
  <path class="fil0" d="M6227 1473c-3,-106 -51,-200 -180,-200 -120,0 -185,84 -205,200l385 0zm-512 88c0,-219 137,-386 335,-386 185,0 293,132 293,335 0,17 -2,34 -3,53l-504 0c3,158 67,296 234,296 104,0 174,-47 206,-67l47 88c-37,25 -121,76 -256,76 -234,0 -352,-175 -352,-396z"/>
  <path class="fil0" d="M6963 1752l0 -411c-47,-43 -102,-68 -178,-68 -141,0 -219,124 -219,292 0,169 61,290 210,290 67,0 140,-37 188,-102zm-518 -185c0,-236 141,-393 329,-393 78,0 141,22 189,65l0 -419 113 0 0 965c0,51 9,113 19,152l-113 0c-5,-16 -12,-57 -14,-85 -51,64 -126,104 -216,104 -178,0 -307,-141 -307,-390z"/>
  <path class="fil0" d="M7705 1448c0,-104 -67,-180 -182,-180 -115,0 -182,76 -182,180 0,104 67,180 182,180 115,0 182,-76 182,-180zm65 616c0,-118 -106,-120 -192,-124 -48,-3 -99,-5 -144,-11 -68,40 -101,93 -101,157 0,71 57,130 191,130 147,0 247,-61 247,-152zm-549 34c0,-84 53,-151 127,-192 -40,-20 -67,-53 -67,-110 0,-50 34,-92 76,-116 -84,-47 -132,-132 -132,-231 0,-157 116,-273 298,-273 42,0 81,6 116,19l242 0 0 90 -115 0c36,45 54,102 54,165 0,157 -116,273 -298,273 -29,0 -56,-3 -82,-9 -34,17 -50,37 -50,62 0,40 47,56 106,59 163,9 388,-5 388,227 0,154 -174,247 -366,247 -166,0 -298,-61 -298,-208z"/>
  <path class="fil0" d="M8450 1473c-3,-106 -51,-200 -180,-200 -120,0 -185,84 -205,200l385 0zm-512 88c0,-219 137,-386 335,-386 185,0 293,132 293,335 0,17 -2,34 -3,53l-504 0c3,158 67,296 234,296 104,0 174,-47 206,-67l47 88c-37,25 -121,76 -256,76 -234,0 -352,-175 -352,-396z"/>
 </g>
</svg>
