<?xml version="1.0" encoding="UTF-8"?>
<!DOCTYPE svg PUBLIC "-//W3C//DTD SVG 1.1//EN" "http://www.w3.org/Graphics/SVG/1.1/DTD/svg11.dtd">
<!-- Creator: CorelDRAW X6 -->
<svg xmlns="http://www.w3.org/2000/svg" xml:space="preserve" width="8.88889in" height="3in" version="1.1" style="shape-rendering:geometricPrecision; text-rendering:geometricPrecision; image-rendering:optimizeQuality; fill-rule:evenodd; clip-rule:evenodd"
viewBox="0 0 8889 3000"
 xmlns:xlink="http://www.w3.org/1999/xlink">
 <defs>
  <style type="text/css">
   <![CDATA[
    .fil1 {fill:#E3713B;fill-rule:nonzero}
    .fil0 {fill:#EBA863;fill-rule:nonzero}
   ]]>
  </style>
 </defs>
 <g id="Layer_x0020_1">
  <metadata id="CorelCorpID_0Corel-Layer"/>
  <path class="fil0" d="M1709 1917c59,-34 115,-70 167,-108 28,-163 45,-369 19,-583 -9,-6 -17,-12 -26,-17 -59,-39 -121,-75 -188,-110 -50,-26 -101,-49 -151,-70 -31,-13 -62,-25 -95,-37 -67,29 -135,64 -203,103 -61,35 -118,72 -171,111 -16,90 -26,187 -29,287 -3,101 2,199 13,290 145,98 306,179 461,236 67,-29 135,-64 203,-103z"/>
  <path class="fil0" d="M1061 1206c19,-108 46,-207 80,-294 -268,-46 -483,-1 -555,138 -63,123 -2,295 147,466 81,-106 193,-212 327,-310z"/>
  <path class="fil0" d="M2207 1496c-64,83 -146,167 -244,246 -10,147 -34,278 -64,371 221,20 392,-30 455,-151 64,-123 2,-295 -147,-466z"/>
  <path class="fil0" d="M1811 877c-9,-23 -18,-46 -28,-69 -6,-11 -105,-247 -285,-252 -123,-4 -236,103 -321,276 131,37 249,78 353,122 98,-37 193,-62 281,-77z"/>
  <path class="fil0" d="M1128 2135c75,194 187,318 316,321 119,3 229,-96 313,-260 -78,-21 -207,-66 -352,-136 -96,35 -189,60 -277,75z"/>
  <path class="fil0" d="M728 1524c-134,179 -183,354 -112,477 76,131 270,173 512,134 -32,-83 -57,-179 -74,-284 -123,-91 -238,-200 -327,-327z"/>
  <path class="fil0" d="M2211 1491c136,-180 186,-357 114,-480 -75,-130 -267,-173 -505,-135 49,98 84,204 108,314 158,127 246,246 283,302z"/>
  <path class="fil1" d="M1942 1259c28,165 33,333 22,483 97,-79 180,-163 244,-246 -8,-9 -16,-18 -24,-27 -57,-61 -138,-135 -241,-210z"/>
  <path class="fil1" d="M1055 1851c17,105 42,201 74,284 87,-14 180,-39 277,-75 -112,-54 -235,-124 -350,-209z"/>
  <path class="fil1" d="M1709 1917c-68,39 -136,74 -203,103 34,12 49,18 75,26 72,23 141,40 207,52 2,0 4,1 6,1 2,0 3,1 5,1 3,-8 7,-17 10,-26 21,-60 47,-152 66,-265 -52,38 -108,74 -167,108z"/>
  <path class="fil1" d="M1233 1095c68,-39 136,-73 203,-103 -91,-32 -188,-60 -292,-80 -1,0 -1,0 -2,0 -34,87 -61,186 -80,294 54,-39 111,-76 171,-111z"/>
  <path class="fil1" d="M892 1669c5,4 10,9 16,13 1,0 1,1 2,1 43,35 89,68 136,100 -11,-92 -15,-189 -13,-290 3,-100 13,-197 29,-287 -134,97 -246,204 -327,310 45,52 98,103 157,153z"/>
  <path class="fil1" d="M1885 1156c-15,-93 -39,-187 -74,-279 -89,15 -184,40 -281,77 101,43 189,89 263,137 33,21 63,43 92,65z"/>
  <path class="fil1" d="M3307 1965l37 0 0 240 -37 0 0 -240zm-9 -72c0,-15 12,-27 27,-27 15,0 27,12 27,27 0,15 -12,27 -27,27 -15,0 -27,-12 -27,-27z"/>
  <path class="fil1" d="M3424 1965l37 0 0 35c22,-27 49,-41 78,-41 51,0 70,33 70,75l0 171 -36 0 0 -164c0,-30 -11,-49 -43,-49 -27,0 -53,20 -70,44l0 169 -37 0 0 -240z"/>
  <path class="fil1" d="M3846 2086c0,-52 -26,-95 -76,-95 -50,0 -70,43 -70,94 0,51 23,95 73,95 50,0 73,-43 73,-94zm-185 0c0,-56 29,-126 110,-126 81,0 114,69 114,125 0,56 -32,126 -113,126 -81,0 -111,-69 -111,-125z"/>
  <polygon class="fil1" points="3909,1965 3949,1965 4017,2157 4018,2157 4085,1965 4123,1965 4034,2205 4000,2205 "/>
  <path class="fil1" d="M4285 2145l0 -54 -11 0c-52,0 -89,14 -89,54 0,25 21,34 36,34 27,0 48,-14 64,-35zm-138 2c0,-64 70,-82 128,-82l11 0 0 -23c0,-35 -15,-50 -48,-50 -22,0 -41,7 -62,26l-20 -25c24,-22 51,-33 85,-33 52,0 82,25 82,79l0 112c0,24 3,43 6,54l-37 0c-2,-7 -3,-22 -4,-29 -16,20 -43,35 -72,35 -40,0 -68,-26 -68,-64z"/>
  <path class="fil1" d="M4419 2309l6 -21c5,3 14,5 26,5 15,0 25,-6 25,-19 0,-19 -18,-21 -35,-20l16 -45c-55,-12 -85,-65 -85,-123 0,-82 51,-126 110,-126 40,0 62,15 74,24l-18 28c-13,-10 -28,-20 -57,-20 -50,0 -71,41 -71,94 0,51 22,95 72,95 30,0 52,-15 59,-20l15 27c-9,8 -33,23 -75,24l-10 27c21,3 35,16 35,35 0,27 -25,41 -55,41 -18,0 -28,-4 -33,-6z"/>
  <path class="fil1" d="M4737 2145l0 -54 -11 0c-52,0 -89,14 -89,54 0,25 21,34 36,34 27,0 48,-14 64,-35zm-74 -231c-12,0 -20,12 -25,16l-20 -18c9,-13 24,-30 47,-30 25,0 34,19 53,19 14,0 22,-10 26,-15l20 19c-11,13 -25,29 -48,29 -24,0 -34,-20 -53,-20zm-65 232c0,-64 70,-82 128,-82l11 0 0 -23c0,-35 -15,-50 -48,-50 -22,0 -41,7 -62,26l-20 -25c24,-22 51,-33 85,-33 52,0 82,25 82,79l0 112c0,24 3,43 6,54l-37 0c-2,-7 -3,-22 -4,-29 -16,20 -43,35 -72,35 -40,0 -69,-26 -69,-64z"/>
  <path class="fil1" d="M5008 2086c0,-52 -26,-95 -76,-95 -50,0 -70,43 -70,94 0,51 23,95 72,95 50,0 73,-43 73,-94zm-185 0c0,-56 29,-126 110,-126 81,0 114,69 114,125 0,56 -32,126 -113,126 -81,0 -111,-69 -111,-125z"/>
  <path class="fil1" d="M2877 1978l13 -67c5,2 15,5 37,5 58,0 76,-47 76,-126l0 -579 80 0 0 593c0,108 -43,181 -149,181 -36,0 -52,-5 -57,-8z"/>
  <path class="fil1" d="M3537 1407c-2,-74 -36,-141 -127,-141 -84,0 -130,59 -144,141l270 0zm-360 62c0,-154 96,-272 236,-272 130,0 206,93 206,236 0,12 -1,24 -2,37l-354 0c2,111 47,208 165,208 73,0 122,-33 145,-47l33 62c-26,17 -85,53 -180,53 -165,0 -248,-123 -248,-278z"/>
  <path class="fil1" d="M3833 1356l292 -348 99 0 -292 342 312 384 -106 0 -305 -378zm-87 -348l84 0 0 726 -84 0 0 -726z"/>
  <path class="fil1" d="M4327 1211l80 0 0 75c47,-59 106,-88 170,-88 110,0 154,73 154,164l0 373 -80 0 0 -358c0,-65 -23,-107 -93,-107 -59,0 -114,45 -152,96l0 369 -80 0 0 -523z"/>
  <path class="fil1" d="M5234 1474c0,-112 -57,-207 -166,-207 -109,0 -153,93 -153,205 0,112 49,207 158,207 109,0 160,-93 160,-205zm-403 0c0,-122 62,-276 239,-276 177,0 250,152 250,274 0,122 -70,276 -246,276 -177,0 -242,-152 -242,-274z"/>
  <polygon class="fil1" points="5348,1211 5435,1211 5546,1607 5548,1607 5671,1211 5749,1211 5872,1608 5874,1608 5986,1211 6067,1211 5910,1734 5838,1734 5708,1328 5706,1328 5575,1734 5503,1734 "/>
  <polygon class="fil1" points="6149,1734 6228,1734 6228,949 6149,949 "/>
  <path class="fil1" d="M6694 1407c-2,-74 -36,-141 -126,-141 -84,0 -130,59 -144,141l270 0zm-360 62c0,-154 96,-272 236,-272 130,0 206,93 206,236 0,12 -1,24 -2,37l-354 0c2,111 47,208 165,208 73,0 122,-33 145,-47l33 62c-26,17 -85,53 -180,53 -165,0 -248,-123 -248,-278z"/>
  <path class="fil1" d="M7211 1604l0 -289c-33,-31 -72,-48 -125,-48 -99,0 -154,87 -154,205 0,119 43,204 147,204 47,0 98,-26 132,-72zm-364 -130c0,-166 99,-276 231,-276 55,0 99,15 133,46l0 -294 80 0 0 678c0,36 7,80 13,107l-80 0c-3,-11 -9,-40 -10,-60 -36,45 -88,73 -152,73 -125,0 -216,-99 -216,-274z"/>
  <path class="fil1" d="M7732 1390c0,-73 -47,-126 -128,-126 -81,0 -128,53 -128,126 0,73 47,126 128,126 81,0 128,-53 128,-126zm46 433c0,-83 -74,-84 -135,-87 -34,-2 -70,-3 -101,-8 -48,28 -71,65 -71,110 0,50 40,92 134,92 104,0 173,-43 173,-107zm-386 24c0,-59 37,-106 89,-135 -28,-14 -47,-37 -47,-77 0,-35 24,-64 53,-82 -59,-33 -93,-93 -93,-162 0,-110 82,-192 209,-192 29,0 57,4 82,13l170 0 0 63 -81 0c25,32 38,72 38,116 0,110 -82,192 -209,192 -21,0 -39,-2 -58,-7 -24,12 -35,26 -35,44 0,28 33,39 74,41 114,7 273,-3 273,159 0,108 -122,173 -257,173 -117,0 -209,-43 -209,-146z"/>
  <path class="fil1" d="M8256 1407c-2,-74 -36,-141 -126,-141 -84,0 -130,59 -144,141l270 0zm-360 62c0,-154 96,-272 236,-272 130,0 206,93 206,236 0,12 -1,24 -2,37l-354 0c2,111 47,208 165,208 73,0 122,-33 145,-47l33 62c-26,17 -85,53 -180,53 -165,0 -248,-123 -248,-278z"/>
  <polygon class="fil1" points="3000,1111 3083,1111 3083,1000 3000,1000 "/>
 </g>
</svg>
