<?xml version="1.0" encoding="UTF-8"?>
<!DOCTYPE svg PUBLIC "-//W3C//DTD SVG 1.1//EN" "http://www.w3.org/Graphics/SVG/1.1/DTD/svg11.dtd">
<!-- Creator: CorelDRAW X6 -->
<svg xmlns="http://www.w3.org/2000/svg" xml:space="preserve" width="8.88889in" height="3in" version="1.1" style="shape-rendering:geometricPrecision; text-rendering:geometricPrecision; image-rendering:optimizeQuality; fill-rule:evenodd; clip-rule:evenodd"
viewBox="0 0 8889 3000"
 xmlns:xlink="http://www.w3.org/1999/xlink">
 <defs>
  <style type="text/css">
   <![CDATA[
    .fil1 {fill:#3E3C39;fill-rule:nonzero}
    .fil0 {fill:#FEFEFE;fill-rule:nonzero}
   ]]>
  </style>
 </defs>
 <g id="Layer_x0020_1">
  <metadata id="CorelCorpID_0Corel-Layer"/>
  <path class="fil0" d="M1709 1911c59,-34 115,-70 167,-108 28,-163 45,-369 19,-583 -9,-6 -17,-12 -26,-17 -59,-39 -121,-75 -188,-110 -50,-26 -101,-49 -151,-70 -31,-13 -62,-25 -95,-37 -67,29 -135,64 -203,103 -61,35 -118,72 -171,111 -16,91 -26,187 -29,287 -3,101 2,199 13,290 145,98 306,179 461,236 67,-29 135,-64 203,-103z"/>
  <path class="fil0" d="M1061 1201c19,-108 46,-207 80,-294 -268,-46 -483,-1 -555,138 -63,123 -2,295 147,466 81,-106 193,-212 327,-310z"/>
  <path class="fil0" d="M2207 1491c-64,83 -146,167 -244,246 -10,147 -34,278 -64,371 221,20 392,-30 455,-151 64,-123 2,-295 -147,-466z"/>
  <path class="fil0" d="M1811 872c-9,-23 -18,-46 -28,-69 -6,-11 -105,-247 -285,-252 -123,-4 -236,102 -321,276 131,37 249,78 353,122 98,-37 193,-62 281,-77z"/>
  <path class="fil0" d="M1128 2130c75,194 187,318 316,321 119,3 229,-96 313,-260 -78,-21 -207,-66 -352,-136 -96,35 -189,60 -277,75z"/>
  <path class="fil0" d="M728 1519c-134,179 -183,354 -112,477 76,131 270,173 512,134 -32,-83 -57,-179 -74,-284 -123,-91 -238,-200 -327,-327z"/>
  <path class="fil0" d="M2211 1486c136,-180 186,-357 114,-480 -75,-130 -267,-173 -505,-135 49,98 84,204 108,314 158,127 246,246 283,302z"/>
  <path class="fil1" d="M1942 1254c28,165 33,333 22,483 97,-79 180,-163 244,-246 -8,-9 -16,-18 -24,-27 -57,-61 -138,-135 -241,-210z"/>
  <path class="fil1" d="M1055 1846c17,105 42,201 74,284 87,-14 180,-39 277,-75 -112,-54 -235,-124 -350,-209z"/>
  <path class="fil1" d="M1709 1911c-68,39 -136,74 -203,103 34,12 49,18 75,26 72,23 141,40 207,52 2,0 4,1 6,1 2,0 3,1 5,1 3,-8 7,-17 10,-26 21,-60 47,-152 66,-265 -52,38 -108,74 -167,108z"/>
  <path class="fil1" d="M1233 1090c68,-39 136,-73 203,-103 -91,-32 -188,-60 -292,-80 -1,0 -1,0 -2,0 -34,87 -61,186 -80,294 54,-39 111,-76 171,-111z"/>
  <path class="fil1" d="M892 1664c5,4 10,9 16,13 1,0 1,1 2,1 43,35 89,68 136,100 -11,-92 -15,-189 -13,-290 3,-100 13,-197 29,-287 -134,97 -246,204 -327,310 45,52 98,103 157,153z"/>
  <path class="fil1" d="M1885 1150c-15,-93 -39,-187 -74,-279 -89,15 -184,40 -281,77 101,43 189,89 263,137 33,21 63,43 92,65z"/>
  <path class="fil0" d="M3290 1946l37 0 0 35c22,-27 49,-40 78,-40 50,0 70,33 70,75l0 171 -36 0 0 -164c0,-30 -11,-49 -43,-49 -27,0 -53,20 -70,44l0 169 -37 0 0 -240z"/>
  <path class="fil0" d="M3531 2117l0 -171 37 0 0 164c0,30 11,49 43,49 37,0 64,-37 69,-44l0 -169 36 0 0 189c0,21 3,41 5,51l-37 0c-1,-6 -3,-24 -4,-36 -11,15 -36,42 -78,42 -51,0 -71,-34 -71,-75z"/>
  <path class="fil0" d="M3776 1946l36 0 0 38c10,-16 31,-44 64,-44 15,0 22,3 25,5l-9 35c-3,-2 -9,-4 -21,-4 -36,0 -56,42 -59,49l0 161 -36 0 0 -240z"/>
  <path class="fil0" d="M3967 2128l0 -153 -39 0 0 -29 39 0 0 -68 37 0 0 68 61 0 0 29 -61 0 0 150c0,24 7,36 28,36 15,0 29,-8 33,-11l14 27c-7,5 -25,15 -50,15 -40,0 -60,-23 -60,-64z"/>
  <path class="fil0" d="M4111 2117l0 -171 37 0 0 164c0,30 11,49 43,49 37,0 64,-37 69,-44l0 -169 36 0 0 189c0,21 3,41 5,51l-37 0c-1,-6 -3,-24 -4,-36 -11,15 -36,42 -78,42 -51,0 -71,-34 -71,-75z"/>
  <path class="fil0" d="M4366 1946l37 0 0 38c10,-16 31,-44 64,-44 15,0 22,3 25,5l-9 35c-3,-2 -9,-4 -21,-4 -36,0 -56,42 -59,49l0 161 -37 0 0 -240z"/>
  <path class="fil0" d="M4522 1946l37 0 0 240 -37 0 0 -240zm-9 -72c0,-15 12,-27 27,-27 15,0 27,12 27,27 0,15 -12,27 -27,27 -15,0 -27,-12 -27,-27z"/>
  <path class="fil0" d="M4629 1946l37 0 0 35c22,-27 49,-40 78,-40 51,0 70,33 70,75l0 171 -36 0 0 -164c0,-30 -11,-49 -42,-49 -27,0 -53,20 -70,44l0 169 -37 0 0 -240z"/>
  <path class="fil0" d="M5022 2028c0,-34 -22,-58 -59,-58 -37,0 -59,25 -59,58 0,33 22,58 59,58 37,0 59,-25 59,-58zm21 198c0,-38 -34,-39 -62,-40 -16,-1 -32,-1 -46,-4 -22,13 -33,30 -33,51 0,23 19,42 62,42 48,0 79,-19 79,-49zm-177 11c0,-27 17,-49 41,-62 -13,-7 -22,-17 -22,-36 0,-16 11,-29 25,-37 -27,-15 -42,-43 -42,-74 0,-50 37,-88 96,-88 13,0 26,2 37,6l78 0 0 29 -37 0c12,15 18,33 18,53 0,50 -37,88 -96,88 -10,0 -18,-1 -27,-3 -11,6 -16,12 -16,20 0,13 15,18 34,19 53,3 125,-2 125,73 0,50 -56,80 -118,80 -53,0 -96,-20 -96,-67z"/>
  <path class="fil0" d="M5392 2036c-1,-34 -16,-65 -58,-65 -39,0 -60,27 -66,65l124 0zm-165 28c0,-70 44,-124 108,-124 59,0 94,42 94,108 0,6 -1,11 -1,17l-162 0c1,51 22,95 76,95 34,0 56,-15 66,-22l15 29c-12,8 -39,24 -83,24 -75,0 -113,-57 -113,-127z"/>
  <path class="fil0" d="M5539 2060l-78 -115 41 0c0,0 55,82 58,86l54 -86 39 0 -75 112 87 128 -42 0 -67 -100 -63 100 -38 0 83 -125z"/>
  <path class="fil0" d="M5680 2066c0,-82 51,-126 110,-126 40,0 62,15 74,24l-18 28c-13,-10 -29,-20 -57,-20 -50,0 -71,41 -71,94 0,51 22,95 72,95 30,0 52,-15 59,-20l15 27c-10,8 -33,24 -75,24 -71,0 -109,-60 -109,-126z"/>
  <path class="fil0" d="M6059 2036c-1,-34 -17,-65 -58,-65 -38,0 -59,27 -66,65l124 0zm-165 28c0,-70 44,-124 108,-124 60,0 94,42 94,108 0,6 0,11 -1,17l-162 0c1,51 21,95 75,95 34,0 56,-15 66,-22l15 29c-12,8 -39,24 -82,24 -75,0 -113,-57 -113,-127z"/>
  <polygon class="fil0" points="6151,2186 6188,2186 6188,1826 6151,1826 "/>
  <polygon class="fil0" points="6267,2186 6304,2186 6304,1826 6267,1826 "/>
  <path class="fil0" d="M6522 2036c-1,-34 -16,-65 -58,-65 -39,0 -60,27 -66,65l124 0zm-165 28c0,-70 44,-124 108,-124 59,0 94,42 94,108 0,6 -1,11 -1,17l-162 0c1,51 22,95 76,95 34,0 56,-15 66,-22l15 29c-12,8 -39,24 -83,24 -75,0 -113,-57 -113,-127z"/>
  <path class="fil0" d="M6613 1946l37 0 0 35c22,-27 49,-40 78,-40 51,0 70,33 70,75l0 171 -36 0 0 -164c0,-30 -11,-49 -42,-49 -27,0 -53,20 -70,44l0 169 -37 0 0 -240z"/>
  <path class="fil0" d="M6841 2066c0,-82 51,-126 110,-126 40,0 62,15 74,24l-18 28c-13,-10 -29,-20 -57,-20 -50,0 -71,41 -71,94 0,51 22,95 72,95 30,0 52,-15 59,-20l15 27c-10,8 -33,24 -75,24 -71,0 -109,-60 -109,-126z"/>
  <path class="fil0" d="M7220 2036c-1,-34 -17,-65 -58,-65 -38,0 -59,27 -66,65l124 0zm-165 28c0,-70 44,-124 108,-124 60,0 94,42 94,108 0,6 0,11 -1,17l-162 0c1,51 21,95 75,95 34,0 56,-15 66,-22l15 29c-12,8 -39,24 -82,24 -75,0 -113,-57 -113,-127z"/>
  <path class="fil0" d="M2863 1958l13 -67c5,2 15,5 37,5 58,0 76,-47 76,-126l0 -579 80 0 0 593c0,108 -43,181 -149,181 -36,0 -52,-5 -57,-8z"/>
  <path class="fil0" d="M3523 1388c-2,-74 -36,-141 -127,-141 -84,0 -130,59 -144,141l270 0zm-360 62c0,-154 96,-272 236,-272 130,0 206,93 206,236 0,12 -1,24 -2,37l-354 0c2,111 47,208 165,208 73,0 122,-33 145,-47l33 62c-26,17 -85,53 -180,53 -165,0 -248,-123 -248,-278z"/>
  <path class="fil0" d="M3819 1337l292 -348 99 0 -292 342 312 384 -106 0 -305 -378zm-87 -348l84 0 0 726 -84 0 0 -726z"/>
  <path class="fil0" d="M4313 1192l80 0 0 75c47,-59 106,-88 170,-88 110,0 154,73 154,164l0 373 -80 0 0 -358c0,-65 -23,-107 -93,-107 -59,0 -114,45 -152,96l0 369 -80 0 0 -523z"/>
  <path class="fil0" d="M5220 1455c0,-112 -57,-207 -166,-207 -109,0 -153,93 -153,205 0,112 49,207 158,207 109,0 160,-93 160,-205zm-403 0c0,-122 62,-276 239,-276 177,0 250,152 250,274 0,122 -70,276 -246,276 -177,0 -242,-152 -242,-274z"/>
  <polygon class="fil0" points="5334,1192 5421,1192 5532,1588 5534,1588 5657,1192 5735,1192 5858,1589 5860,1589 5973,1192 6053,1192 5896,1715 5824,1715 5695,1309 5692,1309 5562,1715 5490,1715 "/>
  <polygon class="fil0" points="6135,1715 6215,1715 6215,930 6135,930 "/>
  <path class="fil0" d="M6680 1388c-2,-74 -36,-141 -126,-141 -84,0 -130,59 -144,141l270 0zm-360 62c0,-154 96,-272 236,-272 130,0 206,93 206,236 0,12 -1,24 -2,37l-354 0c2,111 47,208 165,208 73,0 122,-33 145,-47l33 62c-26,17 -85,53 -180,53 -165,0 -248,-123 -248,-278z"/>
  <path class="fil0" d="M7197 1584l0 -289c-33,-31 -72,-48 -125,-48 -99,0 -154,87 -154,205 0,119 43,204 147,204 47,0 98,-26 132,-72zm-364 -130c0,-166 99,-276 231,-276 55,0 99,15 133,46l0 -294 80 0 0 678c0,36 7,80 13,107l-80 0c-3,-11 -9,-40 -10,-60 -36,45 -88,73 -152,73 -125,0 -216,-99 -216,-274z"/>
  <path class="fil0" d="M7718 1371c0,-73 -47,-126 -128,-126 -81,0 -128,53 -128,126 0,73 47,126 128,126 81,0 128,-53 128,-126zm46 433c0,-83 -74,-84 -135,-87 -34,-2 -70,-3 -101,-8 -48,28 -71,65 -71,110 0,50 40,92 134,92 104,0 173,-43 173,-107zm-386 24c0,-59 37,-106 89,-135 -28,-14 -47,-37 -47,-77 0,-35 24,-64 53,-82 -59,-33 -93,-93 -93,-162 0,-110 82,-192 209,-192 29,0 57,4 82,13l170 0 0 63 -81 0c25,32 38,72 38,116 0,110 -82,192 -209,192 -21,0 -39,-2 -58,-7 -24,12 -35,26 -35,44 0,28 33,39 74,41 114,7 273,-3 273,159 0,108 -122,173 -257,173 -117,0 -209,-43 -209,-146z"/>
  <path class="fil0" d="M8242 1388c-2,-74 -36,-141 -126,-141 -84,0 -130,59 -144,141l270 0zm-360 62c0,-154 96,-272 236,-272 130,0 206,93 206,236 0,12 -1,24 -2,37l-354 0c2,111 47,208 165,208 73,0 122,-33 145,-47l33 62c-26,17 -85,53 -180,53 -165,0 -248,-123 -248,-278z"/>
  <polygon class="fil0" points="2986,1097 3069,1097 3069,986 2986,986 "/>
 </g>
</svg>
