<?xml version="1.0" encoding="UTF-8" standalone="no"?>
<svg
   xmlns:dc="http://purl.org/dc/elements/1.1/"
   xmlns:cc="http://creativecommons.org/ns#"
   xmlns:rdf="http://www.w3.org/1999/02/22-rdf-syntax-ns#"
   xmlns:svg="http://www.w3.org/2000/svg"
   xmlns="http://www.w3.org/2000/svg"
   viewBox="0 0 533.33331 533.33331"
   height="533.33331"
   width="533.33331"
   xml:space="preserve"
   id="svg2"
   version="1.1"><metadata
     id="metadata8"><rdf:RDF><cc:Work
         rdf:about=""><dc:format>image/svg+xml</dc:format><dc:type
           rdf:resource="http://purl.org/dc/dcmitype/StillImage" /></cc:Work></rdf:RDF></metadata><defs
     id="defs6" /><g
     transform="matrix(1.3333333,0,0,-1.3333333,0,533.33333)"
     id="g10"><g
       transform="scale(0.1)"
       id="g12"><path
         id="path14"
         style="fill:#ffffff;fill-opacity:1;fill-rule:nonzero;stroke:none"
         d="m 2371.99,1360.33 c 91.74,53.18 178.65,109.46 260.26,168.11 44.18,253.68 69.63,574.27 29.37,907.88 -13.3,9.08 -26.91,18.16 -40.6,27.19 -91.41,60.29 -189.22,117.51 -292.62,170.88 -78.22,40.4 -157,76.41 -234.67,109.19 -48.08,20.34 -96.91,39.17 -148.01,56.93 -104.76,-45.76 -210.55,-99.05 -315.91,-160.11 -94.27,-54.64 -183.46,-112.62 -266.98,-173.06 -24.72,-140.91 -40.25,-291.27 -44.65,-447.68 -4.42,-157.41 2.64,-309.26 19.6,-452.05 226.23,-151.99 477.34,-278.65 717.75,-367.74 104.91,45.91 210.93,99.23 316.46,160.46" /><path
         id="path16"
         style="fill:#ffffff;fill-opacity:1;fill-rule:nonzero;stroke:none"
         d="m 1362.83,2467.34 c 29.47,168.2 72.19,322.86 125.18,458.03 -418.23,71.08 -752.248,1.79 -863.869,-214.54 -98.907,-191.63 -2.664,-458.79 229.453,-725.74 126.621,164.91 299.996,331.02 509.236,482.25" /><path
         id="path18"
         style="fill:#ffffff;fill-opacity:1;fill-rule:nonzero;stroke:none"
         d="m 3148.28,2015.62 c -99.4,-129.56 -227.69,-259.72 -379.54,-382.94 -15.91,-229.37 -53.58,-432.34 -99.38,-577.62 344.24,-30.68 610.99,46.14 708.35,234.84 98.93,191.63 2.72,458.79 -229.43,725.72" /><path
         id="path20"
         style="fill:#ffffff;fill-opacity:1;fill-rule:nonzero;stroke:none"
         d="m 2531.43,2980.16 c -13.5,36.06 -28.13,71.95 -43.85,107.57 -9.12,17.29 -164.16,385.26 -444.75,393.34 -190.89,5.48 -368.22,-159.69 -499.85,-429.98 203.61,-57.9 387.48,-121.65 550.11,-190.67 152.28,56.92 300.2,96.91 438.34,119.74" /><path
         id="path22"
         style="fill:#ffffff;fill-opacity:1;fill-rule:nonzero;stroke:none"
         d="m 1467.1,1019.99 c 116.45,-302.111 291.53,-494.681 492.01,-500.299 184.84,-5.191 357.04,149.469 487.3,404.7 -121.03,32.55 -322.15,102.399 -548.47,211.729 -149.74,-55.19 -294.99,-93.95 -430.84,-116.13" /><path
         id="path24"
         style="fill:#ffffff;fill-opacity:1;fill-rule:nonzero;stroke:none"
         d="M 843.547,1971.87 C 634.133,1693.79 558.633,1420.3 669.695,1228.67 787.734,1025.06 1090.9,958.582 1467.1,1019.99 c -49.86,129.4 -88.97,278.91 -114.8,442.32 -191.29,141.33 -370.855,310.81 -508.753,509.56" /><path
         id="path26"
         style="fill:#ffffff;fill-opacity:1;fill-rule:nonzero;stroke:none"
         d="m 3154.55,2023.76 c 212.34,279.87 289.37,555.47 177.6,748.21 -116.95,201.8 -415.58,268.98 -786.95,210.5 76.64,-152.23 131.4,-318.16 168.17,-488.47 245.89,-197.6 383.61,-382.73 441.18,-470.24" /><path
         id="path28"
         style="fill:#3e94cf;fill-opacity:1;fill-rule:nonzero;stroke:none"
         d="m 2734.26,2385.17 c 44.12,-257 50.74,-518.53 34.48,-752.49 151.85,123.22 280.14,253.38 379.54,382.94 -12.3,14.15 -24.96,28.3 -38.03,42.42 -88.94,94.68 -214.95,210.11 -375.99,327.13" /><path
         id="path30"
         style="fill:#3e94cf;fill-opacity:1;fill-rule:nonzero;stroke:none"
         d="m 1352.3,1462.31 c 25.83,-163.41 64.94,-312.92 114.8,-442.32 135.85,22.18 281.1,60.94 430.84,116.13 -175.25,84.64 -365.42,192.95 -545.64,326.19" /><path
         id="path32"
         style="fill:#3e94cf;fill-opacity:1;fill-rule:nonzero;stroke:none"
         d="m 2371.99,1360.33 c -105.53,-61.23 -211.55,-114.55 -316.46,-160.46 52.23,-19.01 76.81,-27.74 117.3,-40.72 111.54,-35.71 220.11,-62.11 323.19,-80.77 3.28,-0.59 6.58,-1.2 9.8,-1.73 2.73,-0.41 5.39,-0.79 8.13,-1.26 5.11,13.01 10.13,26.34 15.07,39.76 32.97,93.75 72.58,237.45 103.23,413.29 -81.61,-58.65 -168.52,-114.93 -260.26,-168.11" /><path
         id="path34"
         style="fill:#3e94cf;fill-opacity:1;fill-rule:nonzero;stroke:none"
         d="m 1629.81,2640.4 c 105.36,61.06 211.15,114.35 315.91,160.11 -141.97,49.36 -292.64,93.34 -455.3,124.48 -0.79,0.18 -1.64,0.26 -2.41,0.38 -52.99,-135.17 -95.71,-289.83 -125.18,-458.03 83.52,60.44 172.71,118.42 266.98,173.06" /><path
         id="path36"
         style="fill:#3e94cf;fill-opacity:1;fill-rule:nonzero;stroke:none"
         d="m 1098.84,1746.11 c 8.23,-6.94 16.34,-13.82 24.72,-20.62 0.85,-0.68 1.75,-1.41 2.58,-2.08 67.09,-54.38 138.08,-106.44 211.64,-155.8 -16.96,142.79 -24.02,294.64 -19.6,452.05 4.4,156.41 19.93,306.77 44.65,447.68 C 1153.59,2316.11 980.215,2150 853.594,1985.09 c 69.961,-80.28 152.256,-160.75 245.246,-238.98" /><path
         id="path38"
         style="fill:#3e94cf;fill-opacity:1;fill-rule:nonzero;stroke:none"
         d="m 2645.98,2546.21 c -23.75,144.76 -60.73,290.86 -114.55,433.95 -138.14,-22.83 -286.06,-62.82 -438.34,-119.74 156.76,-66.5 293.81,-137.93 409.51,-213.52 51.09,-33.42 98.73,-67.14 143.38,-100.69" /></g></g></svg>