<?xml version="1.0" encoding="UTF-8" standalone="no"?>
<svg
   xmlns:dc="http://purl.org/dc/elements/1.1/"
   xmlns:cc="http://creativecommons.org/ns#"
   xmlns:rdf="http://www.w3.org/1999/02/22-rdf-syntax-ns#"
   xmlns:svg="http://www.w3.org/2000/svg"
   xmlns="http://www.w3.org/2000/svg"
   viewBox="0 0 533.33331 533.33331"
   height="533.33331"
   width="533.33331"
   xml:space="preserve"
   id="svg2"
   version="1.1"><metadata
     id="metadata8"><rdf:RDF><cc:Work
         rdf:about=""><dc:format>image/svg+xml</dc:format><dc:type
           rdf:resource="http://purl.org/dc/dcmitype/StillImage" /></cc:Work></rdf:RDF></metadata><defs
     id="defs6" /><g
     transform="matrix(1.3333333,0,0,-1.3333333,0,533.33333)"
     id="g10"><g
       transform="scale(0.1)"
       id="g12"><path
         id="path14"
         style="fill:#43a63a;fill-opacity:1;fill-rule:nonzero;stroke:none"
         d="m 2374.51,1359.95 c 91.76,53.17 178.66,109.45 260.27,168.11 44.18,253.68 69.63,574.27 29.37,907.88 -13.29,9.08 -26.91,18.16 -40.61,27.18 -91.4,60.3 -189.21,117.51 -292.61,170.89 -78.23,40.4 -157,76.41 -234.66,109.19 -48.09,20.34 -96.93,39.17 -148.02,56.93 -104.76,-45.76 -210.55,-99.06 -315.91,-160.11 -94.27,-54.64 -183.45,-112.62 -266.99,-173.06 -24.72,-140.92 -40.24,-291.27 -44.64,-447.68 -4.42,-157.41 2.65,-309.26 19.6,-452.05 226.23,-152 477.34,-278.65 717.75,-367.74 104.91,45.91 210.92,99.23 316.45,160.46" /><path
         id="path16"
         style="fill:#43a63a;fill-opacity:1;fill-rule:nonzero;stroke:none"
         d="m 1365.35,2466.96 c 29.47,168.2 72.2,322.85 125.2,458.03 -418.25,71.07 -752.257,1.79 -863.87,-214.54 -98.914,-191.63 -2.676,-458.79 229.441,-725.74 126.621,164.91 299.999,331.02 509.229,482.25" /><path
         id="path18"
         style="fill:#43a63a;fill-opacity:1;fill-rule:nonzero;stroke:none"
         d="m 3150.81,2015.23 c -99.4,-129.55 -227.69,-259.71 -379.54,-382.94 -15.92,-229.36 -53.58,-432.33 -99.39,-577.61 344.25,-30.68 611,46.14 708.35,234.84 98.95,191.63 2.73,458.79 -229.42,725.71" /><path
         id="path20"
         style="fill:#43a63a;fill-opacity:1;fill-rule:nonzero;stroke:none"
         d="m 2533.96,2979.78 c -13.5,36.06 -28.12,71.95 -43.85,107.58 -9.13,17.28 -164.16,385.25 -444.74,393.33 -190.9,5.48 -368.23,-159.69 -499.86,-429.99 203.61,-57.89 387.48,-121.64 550.11,-190.66 152.28,56.92 300.2,96.91 438.34,119.74" /><path
         id="path22"
         style="fill:#43a63a;fill-opacity:1;fill-rule:nonzero;stroke:none"
         d="m 1469.63,1019.61 c 116.45,-302.11 291.52,-494.68 492.01,-500.301 184.83,-5.188 357.03,149.472 487.3,404.703 -121.03,32.547 -322.15,102.398 -548.47,211.728 -149.74,-55.19 -294.99,-93.95 -430.84,-116.13" /><path
         id="path24"
         style="fill:#43a63a;fill-opacity:1;fill-rule:nonzero;stroke:none"
         d="M 846.074,1971.49 C 636.66,1693.41 561.152,1419.92 672.227,1228.29 790.266,1024.68 1093.43,958.199 1469.63,1019.61 c -49.86,129.4 -88.98,278.91 -114.79,442.32 -191.3,141.33 -370.863,310.81 -508.766,509.56" /><path
         id="path26"
         style="fill:#43a63a;fill-opacity:1;fill-rule:nonzero;stroke:none"
         d="m 3157.09,2023.38 c 212.33,279.87 289.36,555.47 177.59,748.21 -116.96,201.8 -415.58,268.98 -786.96,210.5 76.64,-152.23 131.41,-318.16 168.18,-488.47 245.89,-197.6 383.61,-382.73 441.19,-470.24" /><path
         id="path28"
         style="fill:#285935;fill-opacity:1;fill-rule:nonzero;stroke:none"
         d="m 2736.79,2384.79 c 44.12,-257 50.73,-518.53 34.48,-752.5 151.85,123.23 280.14,253.39 379.54,382.94 -12.31,14.15 -24.95,28.31 -38.03,42.43 -88.94,94.68 -214.95,210.11 -375.99,327.13" /><path
         id="path30"
         style="fill:#285935;fill-opacity:1;fill-rule:nonzero;stroke:none"
         d="m 1354.84,1461.93 c 25.81,-163.41 64.93,-312.92 114.79,-442.32 135.85,22.18 281.1,60.94 430.84,116.13 -175.26,84.64 -365.42,192.95 -545.63,326.19" /><path
         id="path32"
         style="fill:#285935;fill-opacity:1;fill-rule:nonzero;stroke:none"
         d="m 2374.51,1359.95 c -105.53,-61.23 -211.54,-114.55 -316.45,-160.46 52.23,-19.01 76.8,-27.74 117.29,-40.72 111.54,-35.71 220.12,-62.11 323.19,-80.77 3.28,-0.59 6.59,-1.2 9.82,-1.73 2.72,-0.41 5.38,-0.79 8.11,-1.26 5.12,13.01 10.14,26.34 15.08,39.76 32.96,93.75 72.58,237.45 103.23,413.29 -81.61,-58.66 -168.51,-114.94 -260.27,-168.11" /><path
         id="path34"
         style="fill:#285935;fill-opacity:1;fill-rule:nonzero;stroke:none"
         d="m 1632.34,2640.02 c 105.36,61.05 211.15,114.35 315.91,160.11 -141.97,49.36 -292.64,93.34 -455.3,124.48 -0.79,0.18 -1.64,0.26 -2.4,0.38 -53,-135.18 -95.73,-289.83 -125.2,-458.03 83.54,60.44 172.72,118.42 266.99,173.06" /><path
         id="path36"
         style="fill:#285935;fill-opacity:1;fill-rule:nonzero;stroke:none"
         d="m 1101.37,1745.73 c 8.23,-6.94 16.34,-13.83 24.72,-20.62 0.85,-0.68 1.76,-1.41 2.58,-2.08 67.09,-54.38 138.08,-106.44 211.64,-155.8 -16.95,142.79 -24.02,294.64 -19.6,452.05 4.4,156.41 19.92,306.76 44.64,447.68 -209.23,-151.23 -382.608,-317.34 -509.229,-482.25 69.965,-80.28 152.259,-160.75 245.249,-238.98" /><path
         id="path38"
         style="fill:#285935;fill-opacity:1;fill-rule:nonzero;stroke:none"
         d="m 2648.5,2545.83 c -23.74,144.76 -60.72,290.86 -114.54,433.95 -138.14,-22.83 -286.06,-62.82 -438.34,-119.74 156.76,-66.5 293.81,-137.93 409.51,-213.52 51.09,-33.42 98.72,-67.15 143.37,-100.69" /></g></g></svg>