<?xml version="1.0" encoding="UTF-8" standalone="no"?>
<svg
   xmlns:dc="http://purl.org/dc/elements/1.1/"
   xmlns:cc="http://creativecommons.org/ns#"
   xmlns:rdf="http://www.w3.org/1999/02/22-rdf-syntax-ns#"
   xmlns:svg="http://www.w3.org/2000/svg"
   xmlns="http://www.w3.org/2000/svg"
   viewBox="0 0 533.33331 533.33331"
   height="533.33331"
   width="533.33331"
   xml:space="preserve"
   id="svg2"
   version="1.1"><metadata
     id="metadata8"><rdf:RDF><cc:Work
         rdf:about=""><dc:format>image/svg+xml</dc:format><dc:type
           rdf:resource="http://purl.org/dc/dcmitype/StillImage" /></cc:Work></rdf:RDF></metadata><defs
     id="defs6" /><g
     transform="matrix(1.3333333,0,0,-1.3333333,0,533.33333)"
     id="g10"><g
       transform="scale(0.1)"
       id="g12"><path
         id="path14"
         style="fill:#ffffff;fill-opacity:1;fill-rule:nonzero;stroke:none"
         d="m 2372.12,1359.95 c 91.73,53.17 178.65,109.45 260.24,168.11 44.19,253.68 69.65,574.27 29.39,907.88 -13.3,9.08 -26.93,18.16 -40.61,27.18 -91.4,60.3 -189.22,117.51 -292.62,170.89 -78.22,40.4 -157,76.41 -234.67,109.19 -48.07,20.34 -96.91,39.17 -147.99,56.93 -104.78,-45.76 -210.57,-99.06 -315.92,-160.11 -94.28,-54.64 -183.46,-112.62 -266.98,-173.06 -24.73,-140.92 -40.26,-291.27 -44.65,-447.68 -4.42,-157.41 2.64,-309.26 19.6,-452.05 226.23,-152 477.33,-278.65 717.74,-367.74 104.92,45.91 210.94,99.23 316.47,160.46" /><path
         id="path16"
         style="fill:#ffffff;fill-opacity:1;fill-rule:nonzero;stroke:none"
         d="m 1362.96,2466.96 c 29.47,168.2 72.18,322.85 125.18,458.03 -418.24,71.07 -752.249,1.79 -863.87,-214.54 -98.918,-191.63 -2.668,-458.79 229.453,-725.74 126.621,164.91 299.997,331.02 509.237,482.25" /><path
         id="path18"
         style="fill:#ffffff;fill-opacity:1;fill-rule:nonzero;stroke:none"
         d="m 3148.41,2015.23 c -99.41,-129.55 -227.7,-259.71 -379.54,-382.94 -15.91,-229.36 -53.59,-432.33 -99.4,-577.61 344.26,-30.68 611.01,46.14 708.36,234.84 98.94,191.63 2.73,458.79 -229.42,725.71" /><path
         id="path20"
         style="fill:#ffffff;fill-opacity:1;fill-rule:nonzero;stroke:none"
         d="m 2531.55,2979.78 c -13.49,36.06 -28.12,71.95 -43.85,107.58 -9.12,17.28 -164.16,385.25 -444.73,393.33 -190.9,5.48 -368.23,-159.69 -499.86,-429.99 203.61,-57.89 387.48,-121.64 550.1,-190.66 152.28,56.92 300.21,96.91 438.34,119.74" /><path
         id="path22"
         style="fill:#ffffff;fill-opacity:1;fill-rule:nonzero;stroke:none"
         d="m 1467.23,1019.61 c 116.44,-302.11 291.54,-494.68 492.01,-500.301 184.83,-5.188 357.04,149.472 487.28,404.703 -121.01,32.547 -322.14,102.398 -548.45,211.728 -149.73,-55.19 -294.99,-93.95 -430.84,-116.13" /><path
         id="path24"
         style="fill:#ffffff;fill-opacity:1;fill-rule:nonzero;stroke:none"
         d="M 843.672,1971.49 C 634.258,1693.41 558.77,1419.92 669.824,1228.29 787.852,1024.68 1091.02,958.199 1467.23,1019.61 c -49.87,129.4 -88.98,278.91 -114.79,442.32 -191.31,141.33 -370.87,310.81 -508.768,509.56" /><path
         id="path26"
         style="fill:#ffffff;fill-opacity:1;fill-rule:nonzero;stroke:none"
         d="m 3154.68,2023.38 c 212.33,279.87 289.36,555.47 177.6,748.21 -116.97,201.8 -415.58,268.98 -786.97,210.5 76.65,-152.23 131.42,-318.16 168.19,-488.47 245.88,-197.6 383.61,-382.73 441.18,-470.24" /><path
         id="path28"
         style="fill:#285935;fill-opacity:1;fill-rule:nonzero;stroke:none"
         d="m 2734.38,2384.79 c 44.12,-257 50.75,-518.53 34.49,-752.5 151.84,123.23 280.13,253.39 379.54,382.94 -12.31,14.15 -24.96,28.31 -38.03,42.43 -88.94,94.68 -214.95,210.11 -376,327.13" /><path
         id="path30"
         style="fill:#285935;fill-opacity:1;fill-rule:nonzero;stroke:none"
         d="m 1352.44,1461.93 c 25.81,-163.41 64.92,-312.92 114.79,-442.32 135.85,22.18 281.11,60.94 430.84,116.13 -175.26,84.64 -365.42,192.95 -545.63,326.19" /><path
         id="path32"
         style="fill:#285935;fill-opacity:1;fill-rule:nonzero;stroke:none"
         d="m 2372.12,1359.95 c -105.53,-61.23 -211.55,-114.55 -316.47,-160.46 52.24,-19.01 76.82,-27.74 117.31,-40.72 111.53,-35.71 220.11,-62.11 323.18,-80.77 3.28,-0.59 6.58,-1.2 9.81,-1.73 2.72,-0.41 5.38,-0.79 8.12,-1.26 5.11,13.01 10.14,26.34 15.08,39.76 32.97,93.75 72.58,237.45 103.21,413.29 -81.59,-58.66 -168.51,-114.94 -260.24,-168.11" /><path
         id="path34"
         style="fill:#285935;fill-opacity:1;fill-rule:nonzero;stroke:none"
         d="m 1629.94,2640.02 c 105.35,61.05 211.14,114.35 315.92,160.11 -141.98,49.36 -292.66,93.34 -455.31,124.48 -0.79,0.18 -1.64,0.26 -2.41,0.38 -53,-135.18 -95.71,-289.83 -125.18,-458.03 83.52,60.44 172.7,118.42 266.98,173.06" /><path
         id="path36"
         style="fill:#285935;fill-opacity:1;fill-rule:nonzero;stroke:none"
         d="m 1098.96,1745.73 c 8.23,-6.94 16.35,-13.83 24.73,-20.62 0.85,-0.68 1.76,-1.41 2.58,-2.08 67.09,-54.38 138.07,-106.44 211.64,-155.8 -16.96,142.79 -24.02,294.64 -19.6,452.05 4.39,156.41 19.92,306.76 44.65,447.68 -209.24,-151.23 -382.616,-317.34 -509.237,-482.25 69.949,-80.28 152.257,-160.75 245.237,-238.98" /><path
         id="path38"
         style="fill:#285935;fill-opacity:1;fill-rule:nonzero;stroke:none"
         d="m 2646.1,2545.83 c -23.76,144.76 -60.72,290.86 -114.55,433.95 -138.13,-22.83 -286.06,-62.82 -438.34,-119.74 156.77,-66.5 293.82,-137.93 409.51,-213.52 51.09,-33.42 98.74,-67.15 143.38,-100.69" /></g></g></svg>