<?xml version="1.0" encoding="UTF-8" standalone="no"?>
<svg
   xmlns:dc="http://purl.org/dc/elements/1.1/"
   xmlns:cc="http://creativecommons.org/ns#"
   xmlns:rdf="http://www.w3.org/1999/02/22-rdf-syntax-ns#"
   xmlns:svg="http://www.w3.org/2000/svg"
   xmlns="http://www.w3.org/2000/svg"
   viewBox="0 0 533.33331 533.33331"
   height="533.33331"
   width="533.33331"
   xml:space="preserve"
   id="svg2"
   version="1.1"><metadata
     id="metadata8"><rdf:RDF><cc:Work
         rdf:about=""><dc:format>image/svg+xml</dc:format><dc:type
           rdf:resource="http://purl.org/dc/dcmitype/StillImage" /></cc:Work></rdf:RDF></metadata><defs
     id="defs6" /><g
     transform="matrix(1.3333333,0,0,-1.3333333,0,533.33333)"
     id="g10"><g
       transform="scale(0.1)"
       id="g12"><path
         id="path14"
         style="fill:#eb9c47;fill-opacity:1;fill-rule:nonzero;stroke:none"
         d="m 2367.94,1357.59 c 91.74,53.17 178.65,109.45 260.24,168.1 44.19,253.68 69.65,574.28 29.39,907.88 -13.3,9.09 -26.92,18.17 -40.61,27.19 -91.4,60.29 -189.22,117.51 -292.62,170.89 -78.22,40.4 -157,76.41 -234.66,109.19 -48.07,20.33 -96.92,39.17 -148,56.92 -104.78,-45.76 -210.56,-99.05 -315.91,-160.1 -94.28,-54.64 -183.47,-112.62 -266.99,-173.06 -24.73,-140.92 -40.26,-291.27 -44.65,-447.69 -4.41,-157.41 2.64,-309.25 19.61,-452.05 226.23,-151.99 477.32,-278.64 717.73,-367.73 104.93,45.91 210.94,99.23 316.47,160.46" /><path
         id="path16"
         style="fill:#eb9c47;fill-opacity:1;fill-rule:nonzero;stroke:none"
         d="m 1358.78,2464.6 c 29.47,168.19 72.19,322.85 125.19,458.03 -418.24,71.07 -752.259,1.78 -863.88,-214.54 -98.906,-191.63 -2.656,-458.79 229.453,-725.75 126.609,164.92 299.997,331.03 509.237,482.26" /><path
         id="path18"
         style="fill:#eb9c47;fill-opacity:1;fill-rule:nonzero;stroke:none"
         d="m 3144.23,2012.87 c -99.41,-129.55 -227.71,-259.72 -379.54,-382.94 -15.91,-229.36 -53.59,-432.33 -99.39,-577.62 344.26,-30.67 611,46.15 708.36,234.85 98.93,191.63 2.72,458.79 -229.43,725.71" /><path
         id="path20"
         style="fill:#eb9c47;fill-opacity:1;fill-rule:nonzero;stroke:none"
         d="m 2527.37,2977.41 c -13.49,36.07 -28.12,71.95 -43.85,107.58 -9.12,17.28 -164.16,385.26 -444.72,393.34 -190.9,5.48 -368.24,-159.7 -499.86,-429.99 203.61,-57.89 387.48,-121.64 550.08,-190.66 152.3,56.92 300.23,96.91 438.35,119.73" /><path
         id="path22"
         style="fill:#eb9c47;fill-opacity:1;fill-rule:nonzero;stroke:none"
         d="m 1463.06,1017.25 c 116.44,-302.109 291.52,-494.68 492.01,-500.309 184.82,-5.179 357.03,149.481 487.27,404.707 -121.01,32.551 -322.13,102.392 -548.44,211.732 -149.75,-55.2 -295,-93.96 -430.84,-116.13" /><path
         id="path24"
         style="fill:#eb9c47;fill-opacity:1;fill-rule:nonzero;stroke:none"
         d="M 839.504,1969.13 C 630.09,1691.04 554.578,1417.56 665.652,1225.93 c 118.02,-203.62 421.198,-270.09 797.408,-208.68 -49.88,129.4 -88.99,278.9 -114.79,442.32 -191.31,141.33 -370.875,310.81 -508.766,509.56" /><path
         id="path26"
         style="fill:#eb9c47;fill-opacity:1;fill-rule:nonzero;stroke:none"
         d="m 3150.49,2021.02 c 212.34,279.87 289.38,555.46 177.61,748.21 -116.96,201.8 -415.58,268.97 -786.96,210.5 76.64,-152.23 131.41,-318.17 168.19,-488.47 245.88,-197.61 383.61,-382.73 441.16,-470.24" /><path
         id="path28"
         style="fill:#e25921;fill-opacity:1;fill-rule:nonzero;stroke:none"
         d="m 2730.21,2382.42 c 44.12,-256.99 50.74,-518.52 34.48,-752.49 151.83,123.22 280.13,253.39 379.54,382.94 -12.31,14.15 -24.96,28.3 -38.04,42.42 -88.93,94.69 -214.92,210.12 -375.98,327.13" /><path
         id="path30"
         style="fill:#e25921;fill-opacity:1;fill-rule:nonzero;stroke:none"
         d="m 1348.27,1459.57 c 25.8,-163.42 64.91,-312.92 114.79,-442.32 135.84,22.17 281.09,60.93 430.84,116.13 -175.26,84.64 -365.43,192.95 -545.63,326.19" /><path
         id="path32"
         style="fill:#e25921;fill-opacity:1;fill-rule:nonzero;stroke:none"
         d="m 2367.94,1357.59 c -105.53,-61.23 -211.54,-114.55 -316.47,-160.46 52.25,-19.01 76.82,-27.75 117.31,-40.72 111.53,-35.72 220.12,-62.11 323.18,-80.78 3.28,-0.58 6.58,-1.2 9.81,-1.72 2.73,-0.41 5.39,-0.79 8.12,-1.26 5.13,13 10.13,26.33 15.08,39.75 32.97,93.75 72.58,237.45 103.21,413.29 -81.59,-58.65 -168.5,-114.93 -260.24,-168.1" /><path
         id="path34"
         style="fill:#e25921;fill-opacity:1;fill-rule:nonzero;stroke:none"
         d="m 1625.77,2637.66 c 105.35,61.05 211.13,114.34 315.91,160.1 -141.99,49.37 -292.66,93.34 -455.3,124.49 -0.8,0.17 -1.64,0.26 -2.41,0.38 -53,-135.18 -95.72,-289.84 -125.19,-458.03 83.52,60.44 172.71,118.42 266.99,173.06" /><path
         id="path36"
         style="fill:#e25921;fill-opacity:1;fill-rule:nonzero;stroke:none"
         d="m 1094.79,1743.37 c 8.22,-6.94 16.35,-13.83 24.72,-20.63 0.84,-0.67 1.77,-1.4 2.59,-2.08 67.08,-54.37 138.07,-106.43 211.64,-155.8 -16.97,142.8 -24.02,294.64 -19.61,452.05 4.39,156.42 19.92,306.77 44.65,447.69 -209.24,-151.23 -382.628,-317.34 -509.237,-482.26 69.961,-80.27 152.267,-160.75 245.247,-238.97" /><path
         id="path38"
         style="fill:#e25921;fill-opacity:1;fill-rule:nonzero;stroke:none"
         d="m 2641.92,2543.47 c -23.75,144.75 -60.73,290.86 -114.55,433.94 -138.12,-22.82 -286.05,-62.81 -438.35,-119.73 156.79,-66.51 293.83,-137.93 409.52,-213.52 51.1,-33.43 98.74,-67.15 143.38,-100.69" /></g></g></svg>