<?xml version="1.0" encoding="UTF-8" standalone="no"?>
<svg
   xmlns:dc="http://purl.org/dc/elements/1.1/"
   xmlns:cc="http://creativecommons.org/ns#"
   xmlns:rdf="http://www.w3.org/1999/02/22-rdf-syntax-ns#"
   xmlns:svg="http://www.w3.org/2000/svg"
   xmlns="http://www.w3.org/2000/svg"
   viewBox="0 0 533.33331 533.33331"
   height="533.33331"
   width="533.33331"
   xml:space="preserve"
   id="svg2"
   version="1.1"><metadata
     id="metadata8"><rdf:RDF><cc:Work
         rdf:about=""><dc:format>image/svg+xml</dc:format><dc:type
           rdf:resource="http://purl.org/dc/dcmitype/StillImage" /></cc:Work></rdf:RDF></metadata><defs
     id="defs6" /><g
     transform="matrix(1.3333333,0,0,-1.3333333,0,533.33333)"
     id="g10"><g
       transform="scale(0.1)"
       id="g12"><path
         id="path14"
         style="fill:#ffffff;fill-opacity:1;fill-rule:nonzero;stroke:none"
         d="m 2371.72,1359.42 c 91.74,53.18 178.65,109.46 260.25,168.11 44.18,253.68 69.64,574.28 29.38,907.88 -13.3,9.08 -26.92,18.16 -40.61,27.19 -91.4,60.29 -189.22,117.51 -292.61,170.89 -78.23,40.4 -157.01,76.4 -234.67,109.19 -48.08,20.33 -96.92,39.17 -148.01,56.92 -104.77,-45.76 -210.56,-99.05 -315.91,-160.11 -94.28,-54.64 -183.46,-112.62 -266.98,-173.05 -24.73,-140.92 -40.26,-291.27 -44.65,-447.69 -4.42,-157.41 2.64,-309.26 19.6,-452.05 226.23,-151.99 477.33,-278.64 717.74,-367.74 104.92,45.91 210.94,99.23 316.47,160.46" /><path
         id="path16"
         style="fill:#ffffff;fill-opacity:1;fill-rule:nonzero;stroke:none"
         d="m 1362.56,2466.44 c 29.47,168.19 72.19,322.85 125.18,458.02 -418.24,71.08 -752.252,1.79 -863.873,-214.54 -98.906,-191.63 -2.668,-458.79 229.453,-725.74 126.621,164.91 300,331.03 509.24,482.26" /><path
         id="path18"
         style="fill:#ffffff;fill-opacity:1;fill-rule:nonzero;stroke:none"
         d="m 3148.01,2014.71 c -99.41,-129.55 -227.7,-259.72 -379.54,-382.94 -15.91,-229.37 -53.59,-432.34 -99.39,-577.62 344.25,-30.67 611,46.14 708.35,234.84 98.94,191.63 2.73,458.79 -229.42,725.72" /><path
         id="path20"
         style="fill:#ffffff;fill-opacity:1;fill-rule:nonzero;stroke:none"
         d="m 2531.15,2979.25 c -13.49,36.06 -28.12,71.95 -43.85,107.58 -9.12,17.28 -164.16,385.25 -444.73,393.34 -190.9,5.47 -368.23,-159.7 -499.86,-429.99 203.61,-57.89 387.47,-121.64 550.1,-190.67 152.29,56.93 300.2,96.92 438.34,119.74" /><path
         id="path22"
         style="fill:#ffffff;fill-opacity:1;fill-rule:nonzero;stroke:none"
         d="m 1466.82,1019.08 c 116.46,-302.111 291.54,-494.682 492.02,-500.299 184.83,-5.191 357.04,149.469 487.29,404.707 -121.02,32.551 -322.15,102.392 -548.47,211.722 -149.73,-55.19 -294.98,-93.95 -430.84,-116.13" /><path
         id="path24"
         style="fill:#ffffff;fill-opacity:1;fill-rule:nonzero;stroke:none"
         d="M 843.27,1970.97 C 633.848,1692.88 558.359,1419.39 669.426,1227.76 787.461,1024.15 1090.63,957.68 1466.82,1019.08 c -49.86,129.41 -88.97,278.91 -114.78,442.33 -191.31,141.32 -370.868,310.81 -508.77,509.56" /><path
         id="path26"
         style="fill:#ffffff;fill-opacity:1;fill-rule:nonzero;stroke:none"
         d="m 3154.28,2022.85 c 212.34,279.87 289.36,555.47 177.6,748.21 -116.96,201.8 -415.58,268.98 -786.96,210.5 76.64,-152.22 131.41,-318.16 168.18,-488.46 245.88,-197.61 383.61,-382.74 441.18,-470.25" /><path
         id="path28"
         style="fill:#a8173c;fill-opacity:1;fill-rule:nonzero;stroke:none"
         d="m 2733.98,2384.26 c 44.13,-256.99 50.75,-518.53 34.49,-752.49 151.84,123.22 280.13,253.39 379.54,382.94 -12.31,14.15 -24.96,28.3 -38.03,42.42 -88.94,94.69 -214.96,210.12 -376,327.13" /><path
         id="path30"
         style="fill:#a8173c;fill-opacity:1;fill-rule:nonzero;stroke:none"
         d="m 1352.04,1461.41 c 25.81,-163.42 64.92,-312.92 114.78,-442.33 135.86,22.18 281.11,60.94 430.84,116.13 -175.25,84.64 -365.41,192.95 -545.62,326.2" /><path
         id="path32"
         style="fill:#a8173c;fill-opacity:1;fill-rule:nonzero;stroke:none"
         d="m 2371.72,1359.42 c -105.53,-61.23 -211.55,-114.55 -316.47,-160.46 52.24,-19.01 76.82,-27.74 117.31,-40.72 111.53,-35.71 220.1,-62.11 323.18,-80.77 3.28,-0.59 6.58,-1.2 9.81,-1.73 2.73,-0.41 5.39,-0.79 8.12,-1.26 5.12,13.01 10.14,26.34 15.08,39.76 32.97,93.75 72.58,237.45 103.22,413.29 -81.6,-58.65 -168.51,-114.93 -260.25,-168.11" /><path
         id="path34"
         style="fill:#a8173c;fill-opacity:1;fill-rule:nonzero;stroke:none"
         d="m 1629.54,2639.49 c 105.35,61.06 211.14,114.35 315.91,160.11 -141.97,49.36 -292.65,93.34 -455.31,124.48 -0.78,0.18 -1.64,0.27 -2.4,0.38 -52.99,-135.17 -95.71,-289.83 -125.18,-458.02 83.52,60.43 172.7,118.41 266.98,173.05" /><path
         id="path36"
         style="fill:#a8173c;fill-opacity:1;fill-rule:nonzero;stroke:none"
         d="m 1098.56,1745.21 c 8.24,-6.95 16.35,-13.83 24.73,-20.63 0.85,-0.67 1.76,-1.41 2.58,-2.08 67.09,-54.38 138.08,-106.44 211.64,-155.8 -16.96,142.79 -24.02,294.64 -19.6,452.05 4.39,156.42 19.92,306.77 44.65,447.69 -209.24,-151.23 -382.619,-317.35 -509.24,-482.26 69.961,-80.27 152.26,-160.75 245.24,-238.97" /><path
         id="path38"
         style="fill:#a8173c;fill-opacity:1;fill-rule:nonzero;stroke:none"
         d="m 2645.7,2545.3 c -23.75,144.76 -60.72,290.86 -114.55,433.95 -138.14,-22.82 -286.05,-62.81 -438.34,-119.74 156.77,-66.5 293.82,-137.93 409.51,-213.51 51.1,-33.43 98.73,-67.15 143.38,-100.7" /></g></g></svg>