<?xml version="1.0" encoding="UTF-8"?>
<!DOCTYPE svg PUBLIC "-//W3C//DTD SVG 1.1//EN" "http://www.w3.org/Graphics/SVG/1.1/DTD/svg11.dtd">
<!-- Creator: CorelDRAW X6 -->
<svg xmlns="http://www.w3.org/2000/svg" xml:space="preserve" width="8.30555in" height="3in" version="1.1" style="shape-rendering:geometricPrecision; text-rendering:geometricPrecision; image-rendering:optimizeQuality; fill-rule:evenodd; clip-rule:evenodd"
viewBox="0 0 8306 3000"
 xmlns:xlink="http://www.w3.org/1999/xlink">
 <defs>
  <style type="text/css">
   <![CDATA[
    .fil0 {fill:#3E3C39;fill-rule:nonzero}
   ]]>
  </style>
 </defs>
 <g id="Layer_x0020_1">
  <metadata id="CorelCorpID_0Corel-Layer"/>
  <path class="fil0" d="M1248 1990l46 0 0 43c27,-34 61,-51 98,-51 64,0 89,42 89,94l0 215 -46 0 0 -206c0,-38 -13,-62 -53,-62 -34,0 -66,26 -87,55l0 213 -46 0 0 -302z"/>
  <path class="fil0" d="M1564 2205l0 -215 46 0 0 206c0,38 13,62 54,62 46,0 81,-47 87,-55l0 -213 46 0 0 238c0,26 3,52 6,64l-47 0c-1,-8 -4,-30 -4,-45 -14,19 -46,52 -98,52 -64,0 -89,-42 -89,-94z"/>
  <path class="fil0" d="M1884 1990l46 0 0 47c12,-20 38,-55 81,-55 18,0 28,4 31,6l-11 44c-3,-2 -11,-5 -26,-5 -45,0 -70,52 -74,62l0 203 -46 0 0 -302z"/>
  <path class="fil0" d="M2112 2220l0 -193 -50 0 0 -36 50 0 0 -86 46 0 0 86 76 0 0 36 -76 0 0 189c0,30 9,45 35,45 19,0 36,-9 41,-13l17 35c-9,6 -31,18 -64,18 -50,0 -76,-30 -76,-80z"/>
  <path class="fil0" d="M2292 2205l0 -215 46 0 0 206c0,38 13,62 54,62 46,0 81,-47 87,-55l0 -213 46 0 0 238c0,26 3,52 6,64l-47 0c-1,-8 -4,-30 -4,-45 -14,19 -46,52 -98,52 -64,0 -89,-42 -89,-94z"/>
  <path class="fil0" d="M2610 1990l46 0 0 47c12,-20 38,-55 81,-55 18,0 28,4 31,6l-11 44c-3,-2 -11,-5 -26,-5 -45,0 -70,52 -74,62l0 203 -46 0 0 -302z"/>
  <path class="fil0" d="M2807 1990l47 0 0 302 -47 0 0 -302zm-11 -91c0,-19 15,-34 34,-34 19,0 34,15 34,34 0,19 -15,34 -34,34 -19,0 -34,-15 -34,-34z"/>
  <path class="fil0" d="M2942 1990l46 0 0 43c27,-34 61,-51 98,-51 64,0 89,42 89,94l0 215 -46 0 0 -206c0,-38 -13,-62 -53,-62 -34,0 -66,26 -87,55l0 213 -46 0 0 -302z"/>
  <path class="fil0" d="M3436 2093c0,-42 -27,-73 -74,-73 -47,0 -74,31 -74,73 0,42 27,73 74,73 47,0 74,-31 74,-73zm26 250c0,-48 -43,-48 -78,-50 -20,-1 -40,-2 -59,-4 -28,16 -41,38 -41,64 0,29 23,53 77,53 60,0 100,-25 100,-62zm-223 14c0,-34 21,-61 52,-78 -16,-8 -27,-21 -27,-45 0,-20 14,-37 31,-47 -34,-19 -53,-53 -53,-94 0,-64 47,-111 121,-111 17,0 33,3 47,8l98 0 0 36 -47 0c14,18 22,42 22,67 0,64 -47,111 -121,111 -12,0 -23,-1 -33,-4 -14,7 -20,15 -20,25 0,16 19,23 43,24 66,4 157,-2 157,92 0,62 -70,100 -149,100 -67,0 -121,-25 -121,-84z"/>
  <path class="fil0" d="M3902 2103c-1,-43 -21,-81 -73,-81 -48,0 -75,34 -83,81l156 0zm-208 36c0,-89 55,-157 136,-157 75,0 119,53 119,136 0,7 -1,14 -1,21l-205 0c1,64 27,120 95,120 42,0 70,-19 84,-27l19 36c-15,10 -49,31 -104,31 -95,0 -143,-71 -143,-160z"/>
  <path class="fil0" d="M4087 2134l-98 -144 52 0c0,0 69,103 73,108l69 -108 48 0 -94 141 109 161 -52 0 -85 -125 -79 125 -48 0 104 -158z"/>
  <path class="fil0" d="M4252 2141c0,-103 64,-159 139,-159 50,0 78,19 92,30l-22 35c-16,-12 -36,-25 -71,-25 -62,0 -89,52 -89,118 0,64 28,120 91,120 38,0 65,-18 74,-25l19 35c-12,10 -42,30 -95,30 -89,0 -137,-76 -137,-159z"/>
  <path class="fil0" d="M4729 2103c-1,-43 -21,-81 -73,-81 -48,0 -75,34 -83,81l156 0zm-208 36c0,-89 55,-157 136,-157 75,0 119,53 119,136 0,7 -1,14 -1,21l-205 0c1,64 27,120 95,120 42,0 70,-19 84,-27l19 36c-15,10 -49,31 -104,31 -95,0 -143,-71 -143,-160z"/>
  <polygon class="fil0" points="4843,2292 4889,2292 4889,1839 4843,1839 "/>
  <polygon class="fil0" points="4989,2292 5035,2292 5035,1839 4989,1839 "/>
  <path class="fil0" d="M5310 2103c-1,-43 -21,-81 -73,-81 -48,0 -75,34 -83,81l156 0zm-208 36c0,-89 55,-157 136,-157 75,0 119,53 119,136 0,7 -1,14 -1,21l-204 0c1,64 27,120 95,120 42,0 70,-19 84,-27l19 36c-15,10 -49,31 -104,31 -95,0 -143,-71 -143,-160z"/>
  <path class="fil0" d="M5423 1990l46 0 0 43c27,-34 61,-51 98,-51 64,0 89,42 89,94l0 215 -46 0 0 -206c0,-38 -13,-62 -53,-62 -34,0 -66,26 -87,55l0 213 -46 0 0 -302z"/>
  <path class="fil0" d="M5710 2141c0,-103 64,-159 139,-159 50,0 78,19 92,30l-22 35c-16,-12 -36,-25 -71,-25 -62,0 -89,52 -89,118 0,64 28,120 91,120 38,0 65,-18 74,-25l19 35c-12,10 -42,30 -95,30 -89,0 -137,-76 -137,-159z"/>
  <path class="fil0" d="M6187 2103c-1,-43 -21,-81 -73,-81 -48,0 -75,34 -83,81l156 0zm-208 36c0,-89 55,-157 136,-157 75,0 119,53 119,136 0,7 -1,14 -1,21l-204 0c1,64 27,120 95,120 42,0 70,-19 84,-27l19 36c-15,10 -49,31 -104,31 -95,0 -143,-71 -143,-160z"/>
  <path class="fil0" d="M711 2006l16 -84c7,3 19,7 47,7 73,0 96,-59 96,-159l0 -729 100 0 0 747c0,136 -54,228 -188,228 -45,0 -66,-7 -71,-10z"/>
  <path class="fil0" d="M1540 1288c-3,-93 -45,-177 -159,-177 -106,0 -163,74 -181,177l340 0zm-453 78c0,-194 121,-342 296,-342 163,0 259,117 259,296 0,15 -1,30 -3,47l-446 0c3,140 59,262 207,262 92,0 154,-41 183,-59l41 78c-33,22 -107,67 -226,67 -207,0 -312,-155 -312,-350z"/>
  <path class="fil0" d="M1913 1223l368 -438 125 0 -368 431 392 483 -133 0 -384 -476zm-110 -438l106 0 0 914 -106 0 0 -914z"/>
  <path class="fil0" d="M2535 1041l100 0 0 95c59,-74 133,-111 214,-111 139,0 194,92 194,206l0 469 -100 0 0 -450c0,-82 -29,-134 -117,-134 -74,0 -144,56 -191,121l0 464 -100 0 0 -659z"/>
  <path class="fil0" d="M3677 1371c0,-141 -71,-261 -209,-261 -137,0 -192,117 -192,258 0,141 62,261 199,261 137,0 202,-117 202,-258zm-508 0c0,-154 78,-347 301,-347 222,0 314,191 314,344 0,154 -88,347 -310,347 -222,0 -305,-191 -305,-344z"/>
  <polygon class="fil0" points="3820,1041 3929,1041 4069,1539 4072,1539 4227,1041 4325,1041 4480,1540 4483,1540 4624,1041 4725,1041 4528,1699 4437,1699 4274,1188 4271,1188 4106,1699 4016,1699 "/>
  <polygon class="fil0" points="4828,1699 4928,1699 4928,711 4828,711 "/>
  <path class="fil0" d="M5514 1288c-3,-93 -45,-177 -159,-177 -106,0 -163,74 -181,177l340 0zm-453 78c0,-194 121,-342 296,-342 163,0 259,117 259,296 0,15 -1,30 -3,47l-446 0c3,140 59,262 207,262 92,0 154,-41 183,-59l41 78c-33,22 -107,67 -226,67 -207,0 -312,-155 -312,-350z"/>
  <path class="fil0" d="M6165 1535l0 -364c-41,-38 -91,-60 -158,-60 -125,0 -194,110 -194,258 0,150 54,257 185,257 59,0 124,-33 166,-91zm-458 -163c0,-209 125,-347 291,-347 69,0 125,19 167,58l0 -371 100 0 0 854c0,45 8,100 16,134l-100 0c-4,-14 -11,-51 -12,-75 -45,56 -111,92 -191,92 -158,0 -272,-125 -272,-344z"/>
  <path class="fil0" d="M6821 1266c0,-92 -59,-159 -161,-159 -102,0 -161,67 -161,159 0,92 59,159 161,159 102,0 161,-67 161,-159zm58 545c0,-104 -93,-106 -170,-110 -43,-3 -88,-4 -128,-10 -60,36 -89,82 -89,139 0,63 51,115 169,115 130,0 218,-54 218,-134zm-486 30c0,-74 47,-133 113,-170 -36,-18 -59,-47 -59,-97 0,-44 30,-81 67,-103 -74,-41 -117,-117 -117,-204 0,-139 103,-242 263,-242 37,0 71,5 103,16l214 0 0 80 -102 0c32,40 48,91 48,145 0,139 -103,242 -263,242 -26,0 -49,-3 -73,-8 -30,15 -44,33 -44,55 0,36 41,49 93,52 144,8 343,-4 343,200 0,136 -154,218 -324,218 -147,0 -264,-54 -264,-184z"/>
  <path class="fil0" d="M7480 1288c-3,-93 -45,-177 -159,-177 -106,0 -163,74 -181,177l340 0zm-453 78c0,-194 121,-342 296,-342 163,0 259,117 259,296 0,15 -1,30 -3,47l-446 0c3,140 59,262 207,262 92,0 154,-41 183,-59l41 78c-33,22 -107,67 -226,67 -207,0 -312,-155 -312,-350z"/>
  <polygon class="fil0" points="861,917 972,917 972,778 861,778 "/>
 </g>
</svg>
