<?xml version="1.0" encoding="UTF-8"?>
<!DOCTYPE svg PUBLIC "-//W3C//DTD SVG 1.1//EN" "http://www.w3.org/Graphics/SVG/1.1/DTD/svg11.dtd">
<!-- Creator: CorelDRAW X6 -->
<svg xmlns="http://www.w3.org/2000/svg" xml:space="preserve" width="8.30555in" height="3in" version="1.1" style="shape-rendering:geometricPrecision; text-rendering:geometricPrecision; image-rendering:optimizeQuality; fill-rule:evenodd; clip-rule:evenodd"
viewBox="0 0 8306 3000"
 xmlns:xlink="http://www.w3.org/1999/xlink">
 <defs>
  <style type="text/css">
   <![CDATA[
    .fil0 {fill:#E3713B;fill-rule:nonzero}
   ]]>
  </style>
 </defs>
 <g id="Layer_x0020_1">
  <metadata id="CorelCorpID_0Corel-Layer"/>
  <path class="fil0" d="M1252 1990l47 0 0 302 -47 0 0 -302zm-11 -91c0,-19 15,-34 34,-34 19,0 34,15 34,34 0,19 -15,34 -34,34 -19,0 -34,-15 -34,-34z"/>
  <path class="fil0" d="M1385 1990l46 0 0 43c27,-34 61,-51 98,-51 64,0 89,42 89,94l0 215 -46 0 0 -206c0,-38 -13,-62 -53,-62 -34,0 -66,26 -87,55l0 213 -46 0 0 -302z"/>
  <path class="fil0" d="M1913 2142c0,-65 -33,-120 -96,-120 -63,0 -88,54 -88,118 0,65 28,120 91,120 63,0 92,-53 92,-118zm-233 0c0,-70 36,-159 138,-159 102,0 144,87 144,158 0,70 -40,159 -142,159 -102,0 -140,-87 -140,-158z"/>
  <polygon class="fil0" points="1991,1990 2042,1990 2128,2232 2129,2232 2213,1990 2261,1990 2149,2292 2106,2292 "/>
  <path class="fil0" d="M2463 2216l0 -68 -13 0c-65,0 -112,18 -112,69 0,31 26,43 45,43 34,0 61,-18 81,-43zm-174 2c0,-80 88,-104 161,-104l13 0 0 -28c0,-45 -19,-63 -60,-63 -28,0 -52,9 -79,33l-25 -32c30,-28 64,-42 106,-42 66,0 103,31 103,100l0 141c0,30 3,54 7,69l-46 0c-2,-8 -4,-27 -4,-37 -20,25 -53,44 -91,44 -50,0 -86,-32 -86,-81z"/>
  <path class="fil0" d="M2642 2422l8 -26c6,3 17,7 33,7 19,0 31,-8 31,-25 0,-23 -23,-26 -45,-26l21 -56c-70,-14 -107,-82 -107,-155 0,-103 64,-159 139,-159 50,0 78,19 92,30l-22 35c-16,-12 -36,-25 -71,-25 -62,0 -89,52 -89,118 0,64 28,120 91,120 38,0 65,-18 74,-25l19 35c-12,10 -42,30 -94,30l-13 34c26,4 44,20 44,44 0,34 -31,52 -69,52 -23,0 -35,-4 -42,-8z"/>
  <path class="fil0" d="M3041 2216l0 -68 -13 0c-65,0 -112,18 -112,69 0,31 26,43 45,43 34,0 61,-18 81,-43zm-93 -291c-14,0 -25,14 -31,20l-25 -23c11,-16 30,-38 59,-38 31,0 43,25 67,25 17,0 27,-13 32,-20l25 24c-13,17 -31,37 -60,37 -30,0 -42,-25 -67,-25zm-81 293c0,-80 88,-104 161,-104l13 0 0 -28c0,-45 -19,-63 -60,-63 -28,0 -52,9 -79,33l-25 -32c30,-28 64,-42 106,-42 66,0 103,31 103,100l0 141c0,30 3,54 7,69l-46 0c-2,-8 -4,-27 -4,-37 -20,25 -53,44 -91,44 -50,0 -86,-32 -86,-81z"/>
  <path class="fil0" d="M3394 2142c0,-65 -33,-120 -96,-120 -63,0 -88,54 -88,118 0,65 28,120 91,120 63,0 92,-53 92,-118zm-233 0c0,-70 36,-159 138,-159 102,0 144,87 144,158 0,70 -40,159 -142,159 -102,0 -140,-87 -140,-158z"/>
  <path class="fil0" d="M711 2006l16 -84c7,3 19,7 47,7 73,0 96,-59 96,-159l0 -729 100 0 0 747c0,136 -54,228 -188,228 -45,0 -66,-7 -71,-10z"/>
  <path class="fil0" d="M1540 1288c-3,-93 -45,-177 -159,-177 -106,0 -163,74 -181,177l340 0zm-453 78c0,-194 121,-342 296,-342 163,0 259,117 259,296 0,15 -1,30 -3,47l-446 0c3,140 59,262 207,262 92,0 154,-41 183,-59l41 78c-33,22 -107,67 -226,67 -207,0 -312,-155 -312,-350z"/>
  <path class="fil0" d="M1913 1223l368 -438 125 0 -368 431 392 483 -133 0 -384 -476zm-110 -438l106 0 0 914 -106 0 0 -914z"/>
  <path class="fil0" d="M2535 1041l100 0 0 95c59,-74 133,-111 214,-111 139,0 194,92 194,206l0 469 -100 0 0 -450c0,-82 -29,-134 -117,-134 -74,0 -144,56 -191,121l0 464 -100 0 0 -659z"/>
  <path class="fil0" d="M3677 1371c0,-141 -71,-261 -209,-261 -137,0 -192,117 -192,258 0,141 62,261 199,261 137,0 202,-117 202,-258zm-508 0c0,-154 78,-347 301,-347 222,0 314,191 314,344 0,154 -88,347 -310,347 -222,0 -305,-191 -305,-344z"/>
  <polygon class="fil0" points="3820,1041 3929,1041 4069,1539 4072,1539 4227,1041 4325,1041 4480,1540 4483,1540 4624,1041 4725,1041 4528,1699 4437,1699 4274,1188 4271,1188 4106,1699 4016,1699 "/>
  <polygon class="fil0" points="4828,1699 4928,1699 4928,711 4828,711 "/>
  <path class="fil0" d="M5514 1288c-3,-93 -45,-177 -159,-177 -106,0 -163,74 -181,177l340 0zm-453 78c0,-194 121,-342 296,-342 163,0 259,117 259,296 0,15 -1,30 -3,47l-446 0c3,140 59,262 207,262 92,0 154,-41 183,-59l41 78c-33,22 -107,67 -226,67 -207,0 -312,-155 -312,-350z"/>
  <path class="fil0" d="M6165 1535l0 -364c-41,-38 -91,-60 -158,-60 -125,0 -194,110 -194,258 0,150 54,257 185,257 59,0 124,-33 166,-91zm-458 -163c0,-209 125,-347 291,-347 69,0 125,19 167,58l0 -371 100 0 0 854c0,45 8,100 16,134l-100 0c-4,-14 -11,-51 -12,-75 -45,56 -111,92 -191,92 -158,0 -272,-125 -272,-344z"/>
  <path class="fil0" d="M6821 1266c0,-92 -59,-159 -161,-159 -102,0 -161,67 -161,159 0,92 59,159 161,159 102,0 161,-67 161,-159zm58 545c0,-104 -93,-106 -170,-110 -43,-3 -88,-4 -128,-10 -60,36 -89,82 -89,139 0,63 51,115 169,115 130,0 218,-54 218,-134zm-486 30c0,-74 47,-133 113,-170 -36,-18 -59,-47 -59,-97 0,-44 30,-81 67,-103 -74,-41 -117,-117 -117,-204 0,-139 103,-242 263,-242 37,0 71,5 103,16l214 0 0 80 -102 0c32,40 48,91 48,145 0,139 -103,242 -263,242 -26,0 -49,-3 -73,-8 -30,15 -44,33 -44,55 0,36 41,49 93,52 144,8 343,-4 343,200 0,136 -154,218 -324,218 -147,0 -264,-54 -264,-184z"/>
  <path class="fil0" d="M7480 1288c-3,-93 -45,-177 -159,-177 -106,0 -163,74 -181,177l340 0zm-453 78c0,-194 121,-342 296,-342 163,0 259,117 259,296 0,15 -1,30 -3,47l-446 0c3,140 59,262 207,262 92,0 154,-41 183,-59l41 78c-33,22 -107,67 -226,67 -207,0 -312,-155 -312,-350z"/>
  <polygon class="fil0" points="861,917 972,917 972,778 861,778 "/>
 </g>
</svg>
