<?xml version="1.0" encoding="UTF-8"?>
<!DOCTYPE svg PUBLIC "-//W3C//DTD SVG 1.1//EN" "http://www.w3.org/Graphics/SVG/1.1/DTD/svg11.dtd">
<!-- Creator: CorelDRAW X6 -->
<svg xmlns="http://www.w3.org/2000/svg" xml:space="preserve" width="8.30555in" height="3in" version="1.1" style="shape-rendering:geometricPrecision; text-rendering:geometricPrecision; image-rendering:optimizeQuality; fill-rule:evenodd; clip-rule:evenodd"
viewBox="0 0 8306 3000"
 xmlns:xlink="http://www.w3.org/1999/xlink">
 <defs>
  <style type="text/css">
   <![CDATA[
    .fil0 {fill:#51A450;fill-rule:nonzero}
   ]]>
  </style>
 </defs>
 <g id="Layer_x0020_1">
  <metadata id="CorelCorpID_0Corel-Layer"/>
  <path class="fil0" d="M1262 2206l0 -193 -50 0 0 -36 50 0 0 -86 46 0 0 86 76 0 0 36 -76 0 0 189c0,30 9,45 35,45 19,0 36,-9 41,-13l17 35c-9,6 -31,18 -64,18 -50,0 -76,-30 -76,-80z"/>
  <path class="fil0" d="M1626 2089c-1,-43 -21,-81 -73,-81 -48,0 -75,34 -83,81l156 0zm-208 36c0,-89 55,-157 136,-157 75,0 119,53 119,136 0,7 -1,14 -1,21l-205 0c1,64 27,120 95,120 42,0 70,-19 84,-27l19 36c-15,10 -49,31 -104,31 -95,0 -143,-71 -143,-160z"/>
  <path class="fil0" d="M1719 2127c0,-103 64,-159 139,-159 50,0 78,19 92,30l-22 35c-16,-12 -36,-25 -71,-25 -62,0 -89,52 -89,118 0,64 28,120 91,120 38,0 65,-18 74,-25l19 35c-12,10 -42,30 -95,30 -89,0 -137,-76 -137,-159z"/>
  <path class="fil0" d="M2005 1976l46 0 0 43c27,-34 61,-51 98,-51 64,0 89,42 89,94l0 215 -46 0 0 -206c0,-38 -13,-62 -53,-62 -34,0 -66,26 -87,55l0 213 -46 0 0 -302z"/>
  <path class="fil0" d="M2533 2128c0,-65 -33,-120 -96,-120 -63,0 -88,54 -88,118 0,65 28,120 91,120 63,0 92,-53 92,-118zm-233 0c0,-70 36,-159 138,-159 102,0 144,87 144,158 0,70 -40,159 -142,159 -102,0 -140,-87 -140,-158z"/>
  <polygon class="fil0" points="2648,2278 2694,2278 2694,1825 2648,1825 "/>
  <path class="fil0" d="M2993 2128c0,-65 -33,-120 -96,-120 -63,0 -88,54 -88,118 0,65 28,120 91,120 63,0 92,-53 92,-118zm-233 0c0,-70 36,-159 138,-159 102,0 144,87 144,158 0,70 -40,159 -142,159 -102,0 -140,-87 -140,-158z"/>
  <path class="fil0" d="M3283 2079c0,-42 -27,-73 -74,-73 -47,0 -74,31 -74,73 0,42 27,73 74,73 47,0 74,-31 74,-73zm26 250c0,-48 -43,-48 -78,-50 -20,-1 -40,-2 -59,-4 -28,16 -41,38 -41,64 0,29 23,53 77,53 60,0 100,-25 100,-62zm-223 14c0,-34 21,-61 52,-78 -16,-8 -27,-21 -27,-45 0,-20 14,-37 31,-47 -34,-19 -53,-53 -53,-94 0,-64 47,-111 121,-111 17,0 33,3 47,8l98 0 0 36 -47 0c14,18 22,42 22,67 0,64 -47,111 -121,111 -12,0 -23,-1 -33,-4 -14,7 -20,15 -20,25 0,16 19,23 43,24 66,4 157,-2 157,92 0,62 -70,100 -149,100 -67,0 -121,-25 -121,-84z"/>
  <path class="fil0" d="M3410 1976l47 0 0 302 -47 0 0 -302zm-11 -91c0,-19 15,-34 34,-34 19,0 34,15 34,34 0,19 -15,34 -34,34 -19,0 -34,-15 -34,-34z"/>
  <path class="fil0" d="M3694 2203l0 -68 -13 0c-65,0 -112,18 -112,69 0,31 26,43 45,43 34,0 61,-18 81,-43zm-174 2c0,-80 88,-104 161,-104l13 0 0 -28c0,-45 -19,-63 -60,-63 -28,0 -52,9 -79,33l-25 -32c30,-28 64,-42 106,-42 66,0 103,31 103,100l0 141c0,30 3,54 7,69l-46 0c-2,-8 -4,-27 -4,-37 -20,25 -53,44 -91,44 -50,0 -86,-32 -86,-81z"/>
  <path class="fil0" d="M711 1992l16 -84c7,3 19,7 47,7 73,0 96,-59 96,-159l0 -729 100 0 0 747c0,136 -54,228 -188,228 -45,0 -66,-7 -71,-10z"/>
  <path class="fil0" d="M1540 1274c-3,-93 -45,-177 -159,-177 -106,0 -163,74 -181,177l340 0zm-453 78c0,-194 121,-342 296,-342 163,0 259,117 259,296 0,15 -1,30 -3,47l-446 0c3,140 59,262 207,262 92,0 154,-41 183,-59l41 78c-33,22 -107,67 -226,67 -207,0 -312,-155 -312,-350z"/>
  <path class="fil0" d="M1913 1209l368 -438 125 0 -368 431 392 483 -133 0 -384 -476zm-110 -438l106 0 0 914 -106 0 0 -914z"/>
  <path class="fil0" d="M2535 1027l100 0 0 95c59,-74 133,-111 214,-111 139,0 194,92 194,206l0 469 -100 0 0 -450c0,-82 -29,-134 -117,-134 -74,0 -144,56 -191,121l0 464 -100 0 0 -659z"/>
  <path class="fil0" d="M3677 1358c0,-141 -71,-261 -209,-261 -137,0 -192,117 -192,258 0,141 62,261 199,261 137,0 202,-117 202,-258zm-508 0c0,-154 78,-347 301,-347 222,0 314,191 314,344 0,154 -88,347 -310,347 -222,0 -305,-191 -305,-344z"/>
  <polygon class="fil0" points="3820,1027 3929,1027 4069,1525 4072,1525 4227,1027 4325,1027 4480,1526 4483,1526 4624,1027 4725,1027 4528,1686 4437,1686 4274,1174 4271,1174 4106,1686 4016,1686 "/>
  <polygon class="fil0" points="4828,1686 4928,1686 4928,697 4828,697 "/>
  <path class="fil0" d="M5514 1274c-3,-93 -45,-177 -159,-177 -106,0 -163,74 -181,177l340 0zm-453 78c0,-194 121,-342 296,-342 163,0 259,117 259,296 0,15 -1,30 -3,47l-446 0c3,140 59,262 207,262 92,0 154,-41 183,-59l41 78c-33,22 -107,67 -226,67 -207,0 -312,-155 -312,-350z"/>
  <path class="fil0" d="M6165 1521l0 -364c-41,-38 -91,-60 -158,-60 -125,0 -194,110 -194,258 0,150 54,257 185,257 59,0 124,-33 166,-91zm-458 -163c0,-209 125,-347 291,-347 69,0 125,19 167,58l0 -371 100 0 0 854c0,45 8,100 16,134l-100 0c-4,-14 -11,-51 -12,-75 -45,56 -111,92 -191,92 -158,0 -272,-125 -272,-344z"/>
  <path class="fil0" d="M6821 1252c0,-92 -59,-159 -161,-159 -102,0 -161,67 -161,159 0,92 59,159 161,159 102,0 161,-67 161,-159zm58 545c0,-104 -93,-106 -170,-110 -43,-3 -88,-4 -128,-10 -60,36 -89,82 -89,139 0,63 51,115 169,115 130,0 218,-54 218,-134zm-486 30c0,-74 47,-133 113,-170 -36,-18 -59,-47 -59,-97 0,-44 30,-81 67,-103 -74,-41 -117,-117 -117,-204 0,-139 103,-242 263,-242 37,0 71,5 103,16l214 0 0 80 -102 0c32,40 48,91 48,145 0,139 -103,242 -263,242 -26,0 -49,-3 -73,-8 -30,15 -44,33 -44,55 0,36 41,49 93,52 144,8 343,-4 343,200 0,136 -154,218 -324,218 -147,0 -264,-54 -264,-184z"/>
  <path class="fil0" d="M7480 1274c-3,-93 -45,-177 -159,-177 -106,0 -163,74 -181,177l340 0zm-453 78c0,-194 121,-342 296,-342 163,0 259,117 259,296 0,15 -1,30 -3,47l-446 0c3,140 59,262 207,262 92,0 154,-41 183,-59l41 78c-33,22 -107,67 -226,67 -207,0 -312,-155 -312,-350z"/>
  <polygon class="fil0" points="861,903 972,903 972,764 861,764 "/>
 </g>
</svg>
